<?xml version="1.0" standalone="no"?>
<!DOCTYPE svg PUBLIC "-//W3C//DTD SVG 20010904//EN"
 "http://www.w3.org/TR/2001/REC-SVG-20010904/DTD/svg10.dtd">
<svg version="1.0" xmlns="http://www.w3.org/2000/svg"
 width="56.000000pt" height="56.000000pt" viewBox="0 0 56.000000 56.000000"
 preserveAspectRatio="xMidYMid meet">

<g transform="translate(0.000000,56.000000) scale(0.100000,-0.100000)"
fill="#FF0000" stroke="none">
<path d="M143 402 c-73 -71 -133 -131 -133 -135 0 -21 32 5 145 114 l124 121
128 -121 c121 -115 143 -132 143 -113 0 8 -265 263 -272 261 -1 0 -63 -57
-135 -127z"/>
<path d="M370 481 c0 -6 19 -11 43 -13 42 -3 42 -3 45 -45 5 -62 22 -53 22 12
l0 55 -55 0 c-30 0 -55 -4 -55 -9z"/>
<path d="M88 264 c-5 -4 -8 -61 -8 -126 l0 -118 75 0 74 0 3 73 3 72 45 0 45
0 3 -72 3 -73 74 0 75 0 0 126 c0 81 -4 123 -10 119 -6 -3 -10 -52 -10 -111
l0 -104 -55 0 -55 0 0 70 0 70 -70 0 -70 0 0 -76 0 -75 -52 3 -53 3 -5 113
c-3 63 -8 110 -12 106z"/>
</g>
</svg>
