<?xml version="1.0" standalone="no"?>
<!DOCTYPE svg PUBLIC "-//W3C//DTD SVG 20010904//EN"
 "http://www.w3.org/TR/2001/REC-SVG-20010904/DTD/svg10.dtd">
<svg version="1.0" xmlns="http://www.w3.org/2000/svg"
 width="56.000000pt" height="56.000000pt" viewBox="0 0 56.000000 56.000000"
 preserveAspectRatio="xMidYMid meet">

<g transform="translate(0.000000,56.000000) scale(0.100000,-0.100000)"
fill="#FF0000" stroke="none">
<path d="M306 542 c-2 -4 -13 -42 -24 -85 l-20 -77 21 -15 c28 -19 34 -19 39
3 3 9 23 27 46 40 l41 23 25 -38 c14 -21 26 -45 26 -55 0 -25 -29 -50 -51 -43
-13 4 -19 2 -19 -9 0 -9 -4 -16 -10 -16 -6 0 -6 -9 0 -26 6 -14 10 -38 10 -54
0 -24 5 -29 36 -35 20 -3 40 -3 44 2 11 12 85 321 79 327 -4 4 -224 66 -236
66 -1 0 -4 -3 -7 -8z m29 -49 c-8 -33 -12 -39 -22 -29 -4 3 -2 11 4 17 6 6 9
18 6 25 -3 8 0 14 7 14 8 0 10 -9 5 -27z m126 -276 c-13 -13 -26 -3 -16 12 3
6 11 8 17 5 6 -4 6 -10 -1 -17z m-1 -21 c0 -3 -4 -8 -10 -11 -5 -3 -10 -1 -10
4 0 6 5 11 10 11 6 0 10 -2 10 -4z"/>
<path d="M55 508 l-29 -22 35 -8 c29 -6 39 -2 63 20 l29 27 -20 -30 c-18 -28
-19 -33 -6 -65 14 -33 16 -34 29 -15 16 22 18 35 4 35 -5 0 -10 4 -10 10 0 5
6 7 14 4 11 -4 13 0 9 15 -3 11 -10 18 -15 15 -5 -3 -8 2 -6 12 5 30 -60 31
-97 2z"/>
<path d="M30 464 c1 -14 29 -60 30 -49 0 6 4 5 8 -2 4 -6 20 -15 36 -19 19 -4
27 -3 23 3 -4 6 -11 23 -17 38 -10 27 -11 27 -25 9 -13 -16 -14 -17 -9 -1 3 9
2 17 -4 17 -6 0 -17 3 -26 6 -9 3 -16 2 -16 -2z"/>
<path d="M138 353 c7 -3 16 -2 19 1 4 3 -2 6 -13 5 -11 0 -14 -3 -6 -6z"/>
<path d="M77 329 c-59 -45 -83 -141 -53 -212 13 -30 66 -89 66 -73 0 4 7 0 16
-8 22 -22 41 -20 21 2 -23 25 -21 41 6 52 21 8 21 9 2 9 -23 1 -55 48 -48 71
3 9 1 11 -4 4 -14 -19 -46 -26 -55 -12 -22 36 9 117 62 162 37 31 27 34 -13 5z"/>
<path d="M263 339 c9 -6 15 -14 12 -20 -9 -14 -88 -11 -111 6 -19 13 -23 12
-44 -10 -13 -14 -30 -25 -37 -25 -11 0 -10 -5 3 -25 10 -16 14 -35 10 -52 -5
-22 -4 -24 4 -11 6 10 26 20 44 23 25 5 37 15 47 38 11 25 21 33 46 35 27 3
35 -2 55 -32 13 -20 31 -36 41 -36 9 0 17 -7 17 -17 0 -9 3 -14 6 -10 3 3 3
20 -1 37 -7 33 -76 110 -97 110 -7 0 -5 -5 5 -11z"/>
<path d="M180 216 c0 -2 8 -10 18 -17 15 -13 16 -12 3 4 -13 16 -21 21 -21 13z"/>
<path d="M290 192 c-3 -7 -22 -14 -43 -15 -26 -1 -37 -7 -37 -17 0 -9 -7 -25
-15 -37 -14 -20 -13 -22 17 -41 l32 -21 30 21 c17 12 31 22 32 22 1 1 -2 24
-5 51 -4 28 -9 44 -11 37z"/>
<path d="M351 154 c0 -11 3 -14 6 -6 3 7 2 16 -1 19 -3 4 -6 -2 -5 -13z"/>
<path d="M333 116 c-6 -8 -10 -16 -7 -19 8 -7 -65 -67 -82 -67 -9 0 -12 5 -8
13 5 8 2 8 -9 -2 -9 -7 -32 -17 -50 -21 l-32 -8 30 -1 c55 -2 102 18 139 59
20 22 36 45 36 50 0 13 -2 12 -17 -4z"/>
</g>
</svg>
