<?xml version="1.0" standalone="no"?>
<!DOCTYPE svg PUBLIC "-//W3C//DTD SVG 20010904//EN"
 "http://www.w3.org/TR/2001/REC-SVG-20010904/DTD/svg10.dtd">
<svg version="1.0" xmlns="http://www.w3.org/2000/svg"
 width="56.000000pt" height="56.000000pt" viewBox="0 0 56.000000 56.000000"
 preserveAspectRatio="xMidYMid meet">

<g transform="translate(0.000000,56.000000) scale(0.100000,-0.100000)"
fill="#FF0000" stroke="none">
<path d="M105 470 c-4 -7 67 -10 214 -10 l221 0 0 -110 0 -110 -162 -2 -163
-3 -3 -32 -3 -33 171 0 171 0 -3 153 -3 152 -217 3 c-139 1 -219 -1 -223 -8z
m235 -270 c0 -5 -4 -10 -10 -10 -5 0 -10 5 -10 10 0 6 5 10 10 10 6 0 10 -4
10 -10z"/>
<path d="M22 432 c-9 -7 -12 -49 -10 -178 l3 -169 79 -3 c57 -2 82 1 87 10 12
19 11 306 -1 329 -9 16 -22 19 -78 19 -37 0 -73 -4 -80 -8z m148 -37 c0 -24
-2 -25 -70 -25 -68 0 -70 1 -70 25 0 24 2 25 70 25 68 0 70 -1 70 -25z m0 -60
c0 -12 -14 -15 -70 -15 -56 0 -70 3 -70 15 0 12 14 15 70 15 56 0 70 -3 70
-15z m-120 -180 c0 -8 -4 -15 -10 -15 -5 0 -10 7 -10 15 0 8 5 15 10 15 6 0
10 -7 10 -15z"/>
<path d="M266 115 c-9 -13 -16 -27 -16 -30 0 -3 36 -5 81 -5 l80 0 -18 30
c-15 27 -23 30 -64 30 -39 0 -50 -4 -63 -25z"/>
</g>
</svg>
